<svg viewBox="0 0 47 56" fill="none" xmlns="http://www.w3.org/2000/svg">
<path d="M13.4667 7.33631V38.153C13.4667 39.5152 14.0204 40.8215 15.006 41.7848C15.9916 42.748 17.3284 43.2891 18.7222 43.2891H39.7445C41.1383 43.2891 42.4751 42.748 43.4607 41.7848C44.4463 40.8215 45 39.5152 45 38.153V15.6619C44.9999 14.9777 44.8599 14.3004 44.5883 13.6698C44.3166 13.0391 43.9188 12.4679 43.4181 11.9896L34.707 3.66399C33.7252 2.72577 32.4066 2.20036 31.0334 2.2002H18.7222C17.3284 2.2002 15.9916 2.74132 15.006 3.70453C14.0204 4.66773 13.4667 5.97413 13.4667 7.33631Z" stroke-width="2.5" stroke-linecap="round" stroke-linejoin="round"/>
<path d="M34.4889 43.6078V48.7041C34.4889 50.0557 33.9184 51.3519 32.9029 52.3077C31.8874 53.2634 30.5102 53.8003 29.0741 53.8003H7.41481C5.97872 53.8003 4.60144 53.2634 3.58596 52.3077C2.57049 51.3519 2 50.0557 2 48.7041V20.6744C2 19.3228 2.57049 18.0265 3.58596 17.0708C4.60144 16.1151 5.97872 15.5781 7.41481 15.5781H12.8296" stroke-width="2.5" stroke-linecap="round" stroke-linejoin="round"/>
</svg>
