<svg width="56" height="56" viewBox="0 0 56 56" fill="none" xmlns="http://www.w3.org/2000/svg">
<path d="M2 2.00611V18.2542M2 18.2542C4.15751 12.9187 9.91597 8.44981 14.8863 5.54774C19.8567 2.64568 25.6496 1.47452 31.3572 2.21779C37.0647 2.96107 42.3643 5.57678 46.4255 9.65499C50.4866 13.7332 53.0797 19.0434 53.7985 24.7534M2 18.2542H18.25M54 54V37.7519M54 37.7519C51.8394 43.0842 46.0831 47.5497 41.1132 50.4491C36.1433 53.3486 30.3521 54.5184 24.6463 53.7754C18.9405 53.0324 13.6421 50.4185 9.58073 46.343C5.51933 42.2675 2.92415 36.9605 2.2015 31.2527M54 37.7519H37.75" stroke="#022835" stroke-width="2.5" stroke-linecap="round" stroke-linejoin="round"/>
</svg>
